<mxfile host="app.diagrams.net" modified="2024-06-16T18:31:34.417Z" agent="Mozilla/5.0 (Windows NT 10.0; Win64; x64) AppleWebKit/537.36 (KHTML, like Gecko) Chrome/125.0.0.0 Safari/537.36" version="24.0.2" etag="f-h7IJ64Zf_3HgGjiiEy" type="github">
  <diagram name="第 1 页" id="xB0XJqFXdMP2fgjgp_6T">
    <mxGraphModel>
      <root>
        <mxCell id="0" />
        <mxCell id="1" parent="0" />
      </root>
    </mxGraphModel>
  </diagram>
</mxfile>
